HIERARCHY
ROOT Hips
{
	OFFSET 0.000000 0.000000 0.000000
	CHANNELS 6 Xposition Yposition Zposition Zrotation Yrotation Xrotation 
	JOINT LeftUpLeg_virtual
	{
		OFFSET 0.000000 0.000000 0.000000
		CHANNELS 3 Zrotation Yrotation Xrotation
		JOINT LeftUpLeg
		{
			OFFSET 8.479694 -4.795517 -0.379053
			CHANNELS 3 Zrotation Yrotation Xrotation
			JOINT LeftLeg
			{
				OFFSET 0.485052 -32.551468 0.112863
				CHANNELS 3 Zrotation Yrotation Xrotation
				JOINT LeftFoot
				{
					OFFSET 0.438033 -32.635670 -3.012641
					CHANNELS 3 Zrotation Yrotation Xrotation
					JOINT LeftToeBase
					{
						OFFSET 0.970169 -13.225353 11.864223
						CHANNELS 3 Zrotation Yrotation Xrotation
						End Site
						{
							OFFSET 0.000000 0.000000 0.000000
						}
					}
				}
			}
		}
	}
	JOINT RightUpLeg_virtual
	{
		OFFSET 0.000000 0.000000 0.000000
		CHANNELS 3 Zrotation Yrotation Xrotation
		JOINT RightUpLeg
		{
			OFFSET -8.479694 -4.795517 -0.379053
			CHANNELS 3 Zrotation Yrotation Xrotation
			JOINT RightLeg
			{
				OFFSET -0.484100 -32.551483 0.112903
				CHANNELS 3 Zrotation Yrotation Xrotation
				JOINT RightFoot
				{
					OFFSET -0.438985 -32.635651 -3.012681
					CHANNELS 3 Zrotation Yrotation Xrotation
					JOINT RightToeBase
					{
						OFFSET -0.970169 -13.225354 11.864223
						CHANNELS 3 Zrotation Yrotation Xrotation
						End Site
						{
							OFFSET 0.000000 0.000000 0.000000
						}
					}
				}
			}
		}
	}
	JOINT Spine_virtual
	{
		OFFSET 0.000000 0.000000 0.000000
		CHANNELS 3 Zrotation Yrotation Xrotation
		JOINT Spine
		{
			OFFSET 0.000000 7.722015 1.166203
			CHANNELS 3 Zrotation Yrotation Xrotation
			JOINT Spine1
			{
				OFFSET 0.000000 12.024086 0.248766
				CHANNELS 3 Zrotation Yrotation Xrotation
				JOINT Spine2
				{
					OFFSET -0.000000 11.503036 -0.491240
					CHANNELS 3 Zrotation Yrotation Xrotation
					JOINT Neck_virtual
					{
						OFFSET 0.000000 0.000000 0.000000
						CHANNELS 3 Zrotation Yrotation Xrotation
						JOINT Neck
						{
							OFFSET 0.000000 18.430687 -3.123054
							CHANNELS 3 Zrotation Yrotation Xrotation
							JOINT Head
							{
								OFFSET -0.000000 9.051071 1.034021
								CHANNELS 3 Zrotation Yrotation Xrotation
								End Site
								{
									OFFSET 0.000000 0.000000 0.000000
								}
							}
						}
					}
					JOINT LeftShoulder_virtual
					{
						OFFSET 0.000000 0.000000 0.000000
						CHANNELS 3 Zrotation Yrotation Xrotation
						JOINT LeftShoulder
						{
							OFFSET 6.197824 13.665230 -4.064723
							CHANNELS 3 Zrotation Yrotation Xrotation
							JOINT LeftArm
							{
								OFFSET 7.778132 -0.187073 -1.709282
								CHANNELS 3 Zrotation Yrotation Xrotation
								JOINT LeftForeArm
								{
									OFFSET 21.954697 0.000000 -2.041093
									CHANNELS 3 Zrotation Yrotation Xrotation
									JOINT LeftHand
									{
										OFFSET 22.992908 0.000000 -0.870901
										CHANNELS 3 Zrotation Yrotation Xrotation
										End Site
										{
											OFFSET 0.000000 0.000000 0.000000
										}
									}
								}
							}
						}
					}
					JOINT RightShoulder_virtual
					{
						OFFSET 0.000000 0.000000 0.000000
						CHANNELS 3 Zrotation Yrotation Xrotation
						JOINT RightShoulder
						{
							OFFSET -6.197824 13.665230 -4.064723
							CHANNELS 3 Zrotation Yrotation Xrotation
							JOINT RightArm
							{
								OFFSET -7.778132 -0.187073 -1.709282
								CHANNELS 3 Zrotation Yrotation Xrotation
								JOINT RightForeArm
								{
									OFFSET -21.954697 0.000000 -2.041093
									CHANNELS 3 Zrotation Yrotation Xrotation
									JOINT RightHand
									{
										OFFSET -22.992908 0.000000 -0.870901
										CHANNELS 3 Zrotation Yrotation Xrotation
										End Site
										{
											OFFSET 0.000000 0.000000 0.000000
										}
									}
								}
							}
						}
					}
				}
			}
		}
	}
}
MOTION
Frames: 9
Frame Time: 0.033333
19.277534 77.394722 32.257004 -179.846613 -81.928146 179.439943 1.746101 1.769624 40.618964 8.219710 -11.982610 -71.094790 1.270297 1.655279 43.375632 -2.317833 0.371988 -0.243251 0.000000 0.000000 0.000000 6.934397 -2.652149 40.696487 -26.213725 -1.176435 -62.875586 3.534270 7.957622 51.021855 8.525994 1.867931 -8.229581 0.000000 0.000000 0.000000 12.979869 -3.321366 54.000678 4.889100 -2.003089 28.260539 0.301869 -0.392172 6.479472 -0.062507 -0.085519 -0.097896 0.901062 -0.065767 7.972958 8.510827 -10.711215 -7.719643 0.000000 0.000000 0.000000 1.713083 1.196550 2.662171 -11.539636 -23.448282 1.836648 -9.638129 -62.715999 -28.639280 -7.033173 -18.364994 11.779686 0.000000 0.000000 0.000000 -2.741715 2.644070 2.008561 21.460212 11.432886 -8.404517 33.616606 48.417346 0.865365 -12.127277 45.293590 -6.378372 0.000000 0.000000 0.000000 
19.210539 77.473137 32.217216 -179.973763 -82.305781 179.561971 1.644577 1.769829 40.453814 8.199702 -12.031069 -70.819431 1.339424 1.490739 43.232147 -2.349419 0.133345 -0.108088 0.000000 0.000000 0.000000 6.844060 -2.668827 40.692986 -25.975510 -1.232231 -62.664779 3.560992 7.889662 50.904953 8.679492 1.627685 -8.248323 0.000000 0.000000 0.000000 12.987861 -3.301861 53.749170 4.818008 -1.946024 28.222275 0.308129 -0.409790 6.518743 -0.069303 -0.093712 -0.094805 0.904434 -0.096478 7.948283 8.480643 -10.537246 -7.752947 0.000000 0.000000 0.000000 1.699234 1.160072 2.644270 -11.528056 -23.533340 1.816413 -10.332419 -62.043041 -28.341291 -7.143700 -19.073315 11.542972 0.000000 0.000000 0.000000 -2.727985 2.599535 1.994726 21.467518 11.603981 -8.033079 33.183986 48.238515 0.761123 -12.156885 45.146710 -6.511175 0.000000 0.000000 0.000000 
19.178644 77.533249 32.173992 179.635054 -82.516724 179.893413 1.614845 1.740444 40.215362 8.311983 -12.241511 -70.515788 1.266712 1.367439 43.168903 -2.209863 0.094672 -0.024369 0.000000 0.000000 0.000000 6.700389 -2.720016 40.458841 -25.776326 -1.172171 -62.292029 3.594514 7.857679 50.777805 8.843633 1.488947 -8.216431 0.000000 0.000000 0.000000 12.925403 -3.283213 53.498317 4.709485 -1.944198 28.206829 0.354135 -0.445619 6.517668 -0.087788 -0.101981 -0.122198 0.950825 -0.126271 7.928575 8.419335 -10.405716 -7.798076 0.000000 0.000000 0.000000 1.735531 1.214219 2.690110 -11.585201 -23.660890 1.617099 -11.259035 -61.274624 -27.817764 -7.301849 -19.732813 11.464266 0.000000 0.000000 0.000000 -2.699731 2.675913 1.973710 21.442091 11.701699 -7.813431 32.688189 47.974573 0.513879 -11.992578 45.055582 -6.097070 0.000000 0.000000 0.000000 
19.164663 77.575546 32.114944 179.555059 -82.458265 179.986495 1.472230 1.711386 39.947796 8.463083 -12.250235 -70.198553 1.204385 1.298628 43.186825 -2.045716 0.046551 -0.025447 0.000000 0.000000 0.000000 6.514836 -2.790242 40.046420 -25.639992 -0.949938 -61.932822 3.643522 7.825609 50.633405 8.988812 1.456470 -8.174244 0.000000 0.000000 0.000000 12.732998 -3.211365 53.238480 4.523654 -1.885160 28.215382 0.391500 -0.479512 6.530663 -0.060415 -0.115583 -0.104495 1.052951 -0.134414 7.873968 8.413323 -10.295883 -7.822842 0.000000 0.000000 0.000000 1.818096 1.160936 2.602288 -11.724777 -23.785335 1.944392 -11.781838 -60.536984 -27.634841 -7.280124 -20.557862 11.320324 0.000000 0.000000 0.000000 -2.576320 2.648658 1.994961 21.351043 12.019019 -7.486809 32.129609 47.605510 0.125620 -12.032466 45.132261 -6.124066 0.000000 0.000000 0.000000 
19.175127 77.605591 32.042122 179.232292 -82.470866 -179.706198 1.270028 1.598244 39.680308 8.742048 -12.283399 -69.923365 1.167986 1.221275 43.260444 -1.891108 0.010592 -0.067167 0.000000 0.000000 0.000000 6.251424 -3.027621 39.654337 -25.522539 -0.677296 -61.605725 3.706249 7.727770 50.445346 9.097278 1.498514 -8.182107 0.000000 0.000000 0.000000 12.473084 -3.223551 52.986658 4.436418 -1.909728 28.193498 0.490624 -0.394610 6.507907 -0.042714 -0.011781 -0.097380 1.076237 -0.285746 7.814404 8.364660 -10.251661 -7.878280 0.000000 0.000000 0.000000 1.815777 1.086996 2.549607 -11.810597 -24.090895 1.908856 -13.062428 -59.630222 -26.918003 -7.386446 -21.364335 11.217841 0.000000 0.000000 0.000000 -2.562310 2.547682 2.000678 21.211820 12.063957 -7.311198 31.720928 47.209055 -0.320385 -12.246402 45.443311 -6.322256 0.000000 0.000000 0.000000 
19.172094 77.627823 31.958868 179.792162 -82.286649 179.772792 1.347913 1.436817 39.430361 9.016564 -12.518827 -69.753724 1.113526 1.195461 43.297498 -1.691158 0.132790 -0.182420 0.000000 0.000000 0.000000 5.946886 -3.442507 39.159264 -25.622994 -0.025589 -61.369489 3.794716 7.481357 50.179112 9.109691 1.579040 -8.091899 0.000000 0.000000 0.000000 12.412394 -3.225134 52.668634 4.305048 -1.838866 28.160694 0.495978 -0.462118 6.482350 -0.073162 -0.090158 -0.105495 1.171242 -0.172298 7.752178 8.288271 -10.074260 -7.901077 0.000000 0.000000 0.000000 1.944501 1.180007 2.568933 -11.896483 -24.143778 1.922176 -14.582199 -58.916467 -26.177236 -7.416515 -22.054167 11.084314 0.000000 0.000000 0.000000 -2.407350 2.682583 1.983594 21.087558 12.159545 -6.966241 31.376270 46.669399 -0.881416 -12.541233 45.999879 -6.850957 0.000000 0.000000 0.000000 
19.159119 77.645111 31.856596 179.986454 -82.116141 179.596395 1.277817 1.241277 39.251618 9.447143 -12.655216 -69.625494 1.054096 1.184060 43.367982 -1.597791 0.411473 -0.301258 0.000000 0.000000 0.000000 5.804951 -3.298643 39.002945 -25.206951 -0.209844 -61.104901 3.881514 7.448033 49.925978 9.116141 1.767321 -8.159548 0.000000 0.000000 0.000000 12.110704 -3.258094 52.409483 4.204477 -1.777665 28.119529 0.519750 -0.451350 6.455725 -0.068069 -0.098095 -0.098462 1.207442 -0.059352 7.725735 8.198297 -9.949111 -7.940037 0.000000 0.000000 0.000000 1.956390 1.235962 2.539715 -12.029687 -24.194583 1.986927 -16.010409 -58.055768 -25.857278 -7.385054 -22.853711 10.937568 0.000000 0.000000 0.000000 -2.353669 2.760126 2.053065 20.939700 12.274541 -6.793902 31.174339 45.954025 -1.538647 -12.687328 46.894996 -6.896254 0.000000 0.000000 0.000000 
19.144146 77.662247 31.741358 -179.799334 -81.808154 179.355795 1.837725 0.982341 39.088391 9.357911 -13.278227 -69.502741 1.032723 1.166245 43.349940 -1.363039 0.732723 -0.375807 0.000000 0.000000 0.000000 5.461494 -3.507835 38.636225 -25.113774 0.224345 -60.797057 3.945688 7.257996 49.499812 9.157099 2.028446 -8.005735 0.000000 0.000000 0.000000 11.895082 -3.235211 52.184595 4.085298 -1.705134 28.081126 0.536066 -0.379133 6.434789 -0.055697 -0.037992 -0.100708 1.240172 0.013829 7.803362 8.064857 -9.794656 -7.826569 0.000000 0.000000 0.000000 1.963798 1.204997 2.515383 -12.066175 -24.283522 2.005135 -17.453645 -57.213561 -26.014029 -7.411120 -23.660358 10.774097 0.000000 0.000000 0.000000 -2.309824 2.639181 2.057240 20.715269 12.256120 -6.615848 30.953386 45.234458 -2.513561 -13.067032 47.904194 -7.114575 0.000000 0.000000 0.000000 
19.107115 77.682014 31.615755 -179.440134 -81.515432 179.071974 1.235479 0.952970 38.949420 10.344347 -13.039019 -69.471767 0.961530 1.283802 43.527863 -1.252655 0.758108 -0.546818 0.000000 0.000000 0.000000 5.154846 -3.554539 38.338422 -24.889115 0.504681 -60.607404 4.008937 7.087776 49.122359 9.148477 2.271119 -7.965775 0.000000 0.000000 0.000000 11.671258 -3.172573 51.842850 3.944596 -1.659812 28.013949 0.551379 -0.360170 6.479513 -0.032098 -0.024630 -0.068104 1.246125 -0.046292 7.710950 7.974561 -9.854060 -7.983625 0.000000 0.000000 0.000000 1.977697 1.230803 2.575768 -12.081588 -24.249745 1.864913 -18.769317 -56.317287 -26.385927 -7.348244 -24.608917 10.520819 0.000000 0.000000 0.000000 -2.287342 2.701754 2.107256 20.666243 12.137288 -6.586439 30.677870 44.349279 -3.265141 -13.508577 49.160809 -7.760533 0.000000 0.000000 0.000000 
